  0
SECTION
  2
HEADER
  9
$ACADVER
  1
AC1009
  9
$EXTMIN
 10
0.0
 20
0.0
 30
0.0
  9
$EXTMAX
 10
1000.0
 20
1000.0
 30
0.0
  9
$FILLMODE
 70
 0
  9
$SPLFRAME
 70
 1
  0
ENDSEC
  0
SECTION
  2
TABLES
  0
TABLE
  2
LAYER
 70
1
  0
LAYER
  2
0
 70
     0
 62
     7
  6
CONTINUOUS
  0
ENDTAB
  0
ENDSEC
  0
SECTION
  2
ENTITIES
  0
POLYLINE
  8
0
 62
     0
 66
     1
 10
0
 20
0
 30
0.0
 70
     1
 40
0
 41
0
  0
VERTEX
  8
0
 10
0.218044
 20
4.7889
 30
0.0
 40
0
 41
0
  0
VERTEX
  8
0
 10
0.214899
 20
4.78651
 30
0.0
 40
0
 41
0
  0
VERTEX
  8
0
 10
0.197754
 20
4.7646
 30
0.0
 40
0
 41
0
  0
VERTEX
  8
0
 10
0.182617
 20
4.73714
 30
0.0
 40
0
 41
0
  0
VERTEX
  8
0
 10
0.180556
 20
4.73193
 30
0.0
 40
0
 41
0
  0
VERTEX
  8
0
 10
0.17844
 20
4.72537
 30
0.0
 40
0
 41
0
  0
VERTEX
  8
0
 10
0.174858
 20
4.6581
 30
0.0
 40
0
 41
0
  0
VERTEX
  8
0
 10
0.170464
 20
4.47765
 30
0.0
 40
0
 41
0
  0
VERTEX
  8
0
 10
0.167643
 20
4.19271
 30
0.0
 40
0
 41
0
  0
VERTEX
  8
0
 10
0.166667
 20
3.90235
 30
0.0
 40
0
 41
0
  0
VERTEX
  8
0
 10
0.166667
 20
3.80556
 30
0.0
 40
0
 41
0
  0
VERTEX
  8
0
 10
0.166667
 20
3.73665
 30
0.0
 40
0
 41
0
  0
VERTEX
  8
0
 10
0.166504
 20
3.52983
 30
0.0
 40
0
 41
0
  0
VERTEX
  8
0
 10
0.166015
 20
3.3164
 30
0.0
 40
0
 41
0
  0
VERTEX
  8
0
 10
0.164876
 20
3.15619
 30
0.0
 40
0
 41
0
  0
VERTEX
  8
0
 10
0.162815
 20
3.04015
 30
0.0
 40
0
 41
0
  0
VERTEX
  8
0
 10
0.15956
 20
2.95915
 30
0.0
 40
0
 41
0
  0
VERTEX
  8
0
 10
0.154949
 20
2.90419
 30
0.0
 40
0
 41
0
  0
VERTEX
  8
0
 10
0.148546
 20
2.86621
 30
0.0
 40
0
 41
0
  0
VERTEX
  8
0
 10
0.142632
 20
2.84353
 30
0.0
 40
0
 41
0
  0
VERTEX
  8
0
 10
0.1403
 20
2.8361
 30
0.0
 40
0
 41
0
  0
VERTEX
  8
0
 10
0.135145
 20
2.81928
 30
0.0
 40
0
 41
0
  0
VERTEX
  8
0
 10
0.115831
 20
2.76992
 30
0.0
 40
0
 41
0
  0
VERTEX
  8
0
 10
0.0876736
 20
2.71669
 30
0.0
 40
0
 41
0
  0
VERTEX
  8
0
 10
0.0576172
 20
2.6791
 30
0.0
 40
0
 41
0
  0
VERTEX
  8
0
 10
0.0359158
 20
2.66237
 30
0.0
 40
0
 41
0
  0
VERTEX
  8
0
 10
0.0277778
 20
2.65972
 30
0.0
 40
0
 41
0
  0
VERTEX
  8
0
 10
0.0254992
 20
2.65901
 30
0.0
 40
0
 41
0
  0
VERTEX
  8
0
 10
0.0189888
 20
2.65603
 30
0.0
 40
0
 41
0
  0
VERTEX
  8
0
 10
0.0122613
 20
2.64968
 30
0.0
 40
0
 41
0
  0
VERTEX
  8
0
 10
0.00737847
 20
2.63878
 30
0.0
 40
0
 41
0
  0
VERTEX
  8
0
 10
0.0039605
 20
2.62121
 30
0.0
 40
0
 41
0
  0
VERTEX
  8
0
 10
0.00179036
 20
2.59489
 30
0.0
 40
0
 41
0
  0
VERTEX
  8
0
 10
0.000596789
 20
2.55778
 30
0.0
 40
0
 41
0
  0
VERTEX
  8
0
 10
0.000108507
 20
2.50786
 30
0.0
 40
0
 41
0
  0
VERTEX
  8
0
 10
0
 20
2.45925
 30
0.0
 40
0
 41
0
  0
VERTEX
  8
0
 10
0
 20
2.44303
 30
0.0
 40
0
 41
0
  0
VERTEX
  8
0
 10
0
 20
2.23611
 30
0.0
 40
0
 41
0
  0
VERTEX
  8
0
 10
0.0347222
 20
2.21946
 30
0.0
 40
0
 41
0
  0
VERTEX
  8
0
 10
0.0434028
 20
2.21565
 30
0.0
 40
0
 41
0
  0
VERTEX
  8
0
 10
0.0664606
 20
2.19737
 30
0.0
 40
0
 41
0
  0
VERTEX
  8
0
 10
0.0952692
 20
2.16043
 30
0.0
 40
0
 41
0
  0
VERTEX
  8
0
 10
0.121202
 20
2.10894
 30
0.0
 40
0
 41
0
  0
VERTEX
  8
0
 10
0.139378
 20
2.05979
 30
0.0
 40
0
 41
0
  0
VERTEX
  8
0
 10
0.144422
 20
2.04308
 30
0.0
 40
0
 41
0
  0
VERTEX
  8
0
 10
0.146485
 20
2.03597
 30
0.0
 40
0
 41
0
  0
VERTEX
  8
0
 10
0.150933
 20
2.01406
 30
0.0
 40
0
 41
0
  0
VERTEX
  8
0
 10
0.156088
 20
1.97217
 30
0.0
 40
0
 41
0
  0
VERTEX
  8
0
 10
0.159993
 20
1.91037
 30
0.0
 40
0
 41
0
  0
VERTEX
  8
0
 10
0.162815
 20
1.82156
 30
0.0
 40
0
 41
0
  0
VERTEX
  8
0
 10
0.164714
 20
1.69863
 30
0.0
 40
0
 41
0
  0
VERTEX
  8
0
 10
0.165907
 20
1.5345
 30
0.0
 40
0
 41
0
  0
VERTEX
  8
0
 10
0.166504
 20
1.32205
 30
0.0
 40
0
 41
0
  0
VERTEX
  8
0
 10
0.166667
 20
1.12115
 30
0.0
 40
0
 41
0
  0
VERTEX
  8
0
 10
0.166667
 20
1.05414
 30
0.0
 40
0
 41
0
  0
VERTEX
  8
0
 10
0.166667
 20
1.00819
 30
0.0
 40
0
 41
0
  0
VERTEX
  8
0
 10
0.166829
 20
0.870171
 30
0.0
 40
0
 41
0
  0
VERTEX
  8
0
 10
0.167372
 20
0.696886
 30
0.0
 40
0
 41
0
  0
VERTEX
  8
0
 10
0.168186
 20
0.538194
 30
0.0
 40
0
 41
0
  0
VERTEX
  8
0
 10
0.169271
 20
0.397949
 30
0.0
 40
0
 41
0
  0
VERTEX
  8
0
 10
0.170518
 20
0.280111
 30
0.0
 40
0
 41
0
  0
VERTEX
  8
0
 10
0.171929
 20
0.188531
 30
0.0
 40
0
 41
0
  0
VERTEX
  8
0
 10
0.173449
 20
0.127224
 30
0.0
 40
0
 41
0
  0
VERTEX
  8
0
 10
0.173936
 20
0.105903
 30
0.0
 40
0
 41
0
  0
VERTEX
  8
0
 10
0.175022
 20
0.0999892
 30
0.0
 40
0
 41
0
  0
VERTEX
  8
0
 10
0.176053
 20
0.0941297
 30
0.0
 40
0
 41
0
  0
VERTEX
  8
0
 10
0.188857
 20
0.0614692
 30
0.0
 40
0
 41
0
  0
VERTEX
  8
0
 10
0.207249
 20
0.0330404
 30
0.0
 40
0
 41
0
  0
VERTEX
  8
0
 10
0.2111
 20
0.0291883
 30
0.0
 40
0
 41
0
  0
VERTEX
  8
0
 10
0.21544
 20
0.0243599
 30
0.0
 40
0
 41
0
  0
VERTEX
  8
0
 10
0.231879
 20
0.0129123
 30
0.0
 40
0
 41
0
  0
VERTEX
  8
0
 10
0.271322
 20
0.00417751
 30
0.0
 40
0
 41
0
  0
VERTEX
  8
0
 10
0.351129
 20
0.000705296
 30
0.0
 40
0
 41
0
  0
VERTEX
  8
0
 10
0.457574
 20
0
 30
0.0
 40
0
 41
0
  0
VERTEX
  8
0
 10
0.493056
 20
0
 30
0.0
 40
0
 41
0
  0
VERTEX
  8
0
 10
0.75
 20
0
 30
0.0
 40
0
 41
0
  0
VERTEX
  8
0
 10
0.75
 20
0.458333
 30
0.0
 40
0
 41
0
  0
VERTEX
  8
0
 10
0.513889
 20
0.458333
 30
0.0
 40
0
 41
0
  0
VERTEX
  8
0
 10
0.513889
 20
1.29584
 30
0.0
 40
0
 41
0
  0
VERTEX
  8
0
 10
0.513889
 20
1.37077
 30
0.0
 40
0
 41
0
  0
VERTEX
  8
0
 10
0.513618
 20
1.59543
 30
0.0
 40
0
 41
0
  0
VERTEX
  8
0
 10
0.512261
 20
1.82482
 30
0.0
 40
0
 41
0
  0
VERTEX
  8
0
 10
0.509115
 20
1.99556
 30
0.0
 40
0
 41
0
  0
VERTEX
  8
0
 10
0.503256
 20
2.11914
 30
0.0
 40
0
 41
0
  0
VERTEX
  8
0
 10
0.493978
 20
2.20719
 30
0.0
 40
0
 41
0
  0
VERTEX
  8
0
 10
0.480469
 20
2.27126
 30
0.0
 40
0
 41
0
  0
VERTEX
  8
0
 10
0.461914
 20
2.32286
 30
0.0
 40
0
 41
0
  0
VERTEX
  8
0
 10
0.443847
 20
2.36106
 30
0.0
 40
0
 41
0
  0
VERTEX
  8
0
 10
0.4375
 20
2.37358
 30
0.0
 40
0
 41
0
  0
VERTEX
  8
0
 10
0.402778
 20
2.44168
 30
0.0
 40
0
 41
0
  0
VERTEX
  8
0
 10
0.4375
 20
2.50276
 30
0.0
 40
0
 41
0
  0
VERTEX
  8
0
 10
0.443847
 20
2.51426
 30
0.0
 40
0
 41
0
  0
VERTEX
  8
0
 10
0.461481
 20
2.54949
 30
0.0
 40
0
 41
0
  0
VERTEX
  8
0
 10
0.479872
 20
2.59879
 30
0.0
 40
0
 41
0
  0
VERTEX
  8
0
 10
0.493381
 20
2.66135
 30
0.0
 40
0
 41
0
  0
VERTEX
  8
0
 10
0.502767
 20
2.74778
 30
0.0
 40
0
 41
0
  0
VERTEX
  8
0
 10
0.508735
 20
2.86882
 30
0.0
 40
0
 41
0
  0
VERTEX
  8
0
 10
0.512099
 20
3.03504
 30
0.0
 40
0
 41
0
  0
VERTEX
  8
0
 10
0.513564
 20
3.25717
 30
0.0
 40
0
 41
0
  0
VERTEX
  8
0
 10
0.513889
 20
3.47368
 30
0.0
 40
0
 41
0
  0
VERTEX
  8
0
 10
0.513889
 20
3.54585
 30
0.0
 40
0
 41
0
  0
VERTEX
  8
0
 10
0.513889
 20
4.34722
 30
0.0
 40
0
 41
0
  0
VERTEX
  8
0
 10
0.75
 20
4.34722
 30
0.0
 40
0
 41
0
  0
VERTEX
  8
0
 10
0.75
 20
4.80556
 30
0.0
 40
0
 41
0
  0
VERTEX
  8
0
 10
0.495822
 20
4.80556
 30
0.0
 40
0
 41
0
  0
VERTEX
  8
0
 10
0.466362
 20
4.80556
 30
0.0
 40
0
 41
0
  0
VERTEX
  8
0
 10
0.377983
 20
4.80453
 30
0.0
 40
0
 41
0
  0
VERTEX
  8
0
 10
0.294922
 20
4.80143
 30
0.0
 40
0
 41
0
  0
VERTEX
  8
0
 10
0.242893
 20
4.79622
 30
0.0
 40
0
 41
0
  0
VERTEX
  8
0
 10
0.222168
 20
4.79172
 30
0.0
 40
0
 41
0
  0
VERTEX
  8
0
 10
0.218044
 20
4.7889
 30
0.0
 40
0
 41
0
  0
SEQEND
 8
0
  0
POLYLINE
  8
0
 62
     0
 66
     1
 10
0
 20
0
 30
0.0
 70
     1
 40
0
 41
0
  0
VERTEX
  8
0
 10
3.13889
 20
4.57639
 30
0.0
 40
0
 41
0
  0
VERTEX
  8
0
 10
3.13889
 20
4.34722
 30
0.0
 40
0
 41
0
  0
VERTEX
  8
0
 10
3.36111
 20
4.34722
 30
0.0
 40
0
 41
0
  0
VERTEX
  8
0
 10
3.36111
 20
3.55279
 30
0.0
 40
0
 41
0
  0
VERTEX
  8
0
 10
3.36122
 20
3.4815
 30
0.0
 40
0
 41
0
  0
VERTEX
  8
0
 10
3.36182
 20
3.26747
 30
0.0
 40
0
 41
0
  0
VERTEX
  8
0
 10
3.36344
 20
3.04801
 30
0.0
 40
0
 41
0
  0
VERTEX
  8
0
 10
3.36675
 20
2.88368
 30
0.0
 40
0
 41
0
  0
VERTEX
  8
0
 10
3.37256
 20
2.76357
 30
0.0
 40
0
 41
0
  0
VERTEX
  8
0
 10
3.38163
 20
2.67692
 30
0.0
 40
0
 41
0
  0
VERTEX
  8
0
 10
3.39469
 20
2.61296
 30
0.0
 40
0
 41
0
  0
VERTEX
  8
0
 10
3.4126
 20
2.56082
 30
0.0
 40
0
 41
0
  0
VERTEX
  8
0
 10
3.4299
 20
2.52235
 30
0.0
 40
0
 41
0
  0
VERTEX
  8
0
 10
3.43608
 20
2.50971
 30
0.0
 40
0
 41
0
  0
VERTEX
  8
0
 10
3.47222
 20
2.43474
 30
0.0
 40
0
 41
0
  0
VERTEX
  8
0
 10
3.4375
 20
2.37082
 30
0.0
 40
0
 41
0
  0
VERTEX
  8
0
 10
3.4311
 20
2.35949
 30
0.0
 40
0
 41
0
  0
VERTEX
  8
0
 10
3.41347
 20
2.32454
 30
0.0
 40
0
 41
0
  0
VERTEX
  8
0
 10
3.39507
 20
2.27425
 30
0.0
 40
0
 41
0
  0
VERTEX
  8
0
 10
3.38157
 20
2.20931
 30
0.0
 40
0
 41
0
  0
VERTEX
  8
0
 10
3.37218
 20
2.11893
 30
0.0
 40
0
 41
0
  0
VERTEX
  8
0
 10
3.36621
 20
1.99246
 30
0.0
 40
0
 41
0
  0
VERTEX
  8
0
 10
3.36285
 20
1.81913
 30
0.0
 40
0
 41
0
  0
VERTEX
  8
0
 10
3.36139
 20
1.58817
 30
0.0
 40
0
 41
0
  0
VERTEX
  8
0
 10
3.36111
 20
1.36372
 30
0.0
 40
0
 41
0
  0
VERTEX
  8
0
 10
3.36111
 20
1.2889
 30
0.0
 40
0
 41
0
  0
VERTEX
  8
0
 10
3.36111
 20
0.458333
 30
0.0
 40
0
 41
0
  0
VERTEX
  8
0
 10
3.13889
 20
0.458333
 30
0.0
 40
0
 41
0
  0
VERTEX
  8
0
 10
3.13889
 20
0
 30
0.0
 40
0
 41
0
  0
VERTEX
  8
0
 10
3.38053
 20
0
 30
0.0
 40
0
 41
0
  0
VERTEX
  8
0
 10
3.40451
 20
0
 30
0.0
 40
0
 41
0
  0
VERTEX
  8
0
 10
3.47646
 20
0.000759549
 30
0.0
 40
0
 41
0
  0
VERTEX
  8
0
 10
3.55832
 20
0.00265842
 30
0.0
 40
0
 41
0
  0
VERTEX
  8
0
 10
3.61724
 20
0.00531685
 30
0.0
 40
0
 41
0
  0
VERTEX
  8
0
 10
3.64165
 20
0.00732422
 30
0.0
 40
0
 41
0
  0
VERTEX
  8
0
 10
3.64442
 20
0.00835504
 30
0.0
 40
0
 41
0
  0
VERTEX
  8
0
 10
3.64919
 20
0.0101997
 30
0.0
 40
0
 41
0
  0
VERTEX
  8
0
 10
3.66282
 20
0.0178494
 30
0.0
 40
0
 41
0
  0
VERTEX
  8
0
 10
3.67686
 20
0.03852
 30
0.0
 40
0
 41
0
  0
VERTEX
  8
0
 10
3.68718
 20
0.0819228
 30
0.0
 40
0
 41
0
  0
VERTEX
  8
0
 10
3.69461
 20
0.159776
 30
0.0
 40
0
 41
0
  0
VERTEX
  8
0
 10
3.69971
 20
0.283692
 30
0.0
 40
0
 41
0
  0
VERTEX
  8
0
 10
3.70318
 20
0.465386
 30
0.0
 40
0
 41
0
  0
VERTEX
  8
0
 10
3.70583
 20
0.716471
 30
0.0
 40
0
 41
0
  0
VERTEX
  8
0
 10
3.70774
 20
0.965603
 30
0.0
 40
0
 41
0
  0
VERTEX
  8
0
 10
3.70833
 20
1.04861
 30
0.0
 40
0
 41
0
  0
VERTEX
  8
0
 10
3.70865
 20
1.09668
 30
0.0
 40
0
 41
0
  0
VERTEX
  8
0
 10
3.70979
 20
1.24089
 30
0.0
 40
0
 41
0
  0
VERTEX
  8
0
 10
3.71115
 20
1.40853
 30
0.0
 40
0
 41
0
  0
VERTEX
  8
0
 10
3.71262
 20
1.55333
 30
0.0
 40
0
 41
0
  0
VERTEX
  8
0
 10
3.71436
 20
1.67714
 30
0.0
 40
0
 41
0
  0
VERTEX
  8
0
 10
3.71658
 20
1.78185
 30
0.0
 40
0
 41
0
  0
VERTEX
  8
0
 10
3.71935
 20
1.86931
 30
0.0
 40
0
 41
0
  0
VERTEX
  8
0
 10
3.72299
 20
1.94129
 30
0.0
 40
0
 41
0
  0
VERTEX
  8
0
 10
3.7276
 20
1.99968
 30
0.0
 40
0
 41
0
  0
VERTEX
  8
0
 10
3.73335
 20
2.04633
 30
0.0
 40
0
 41
0
  0
VERTEX
  8
0
 10
3.7404
 20
2.08306
 30
0.0
 40
0
 41
0
  0
VERTEX
  8
0
 10
3.74903
 20
2.11176
 30
0.0
 40
0
 41
0
  0
VERTEX
  8
0
 10
3.75928
 20
2.13417
 30
0.0
 40
0
 41
0
  0
VERTEX
  8
0
 10
3.77143
 20
2.15224
 30
0.0
 40
0
 41
0
  0
VERTEX
  8
0
 10
3.78564
 20
2.16781
 30
0.0
 40
0
 41
0
  0
VERTEX
  8
0
 10
3.80203
 20
2.18267
 30
0.0
 40
0
 41
0
  0
VERTEX
  8
0
 10
3.81614
 20
2.19467
 30
0.0
 40
0
 41
0
  0
VERTEX
  8
0
 10
3.82086
 20
2.19862
 30
0.0
 40
0
 41
0
  0
VERTEX
  8
0
 10
3.875
 20
2.24582
 30
0.0
 40
0
 41
0
  0
VERTEX
  8
0
 10
3.875
 20
2.64583
 30
0.0
 40
0
 41
0
  0
VERTEX
  8
0
 10
3.8361
 20
2.66808
 30
0.0
 40
0
 41
0
  0
VERTEX
  8
0
 10
3.82667
 20
2.67324
 30
0.0
 40
0
 41
0
  0
VERTEX
  8
0
 10
3.80328
 20
2.69754
 30
0.0
 40
0
 41
0
  0
VERTEX
  8
0
 10
3.77132
 20
2.74636
 30
0.0
 40
0
 41
0
  0
VERTEX
  8
0
 10
3.74333
 20
2.80849
 30
0.0
 40
0
 41
0
  0
VERTEX
  8
0
 10
3.72635
 20
2.86019
 30
0.0
 40
0
 41
0
  0
VERTEX
  8
0
 10
3.72222
 20
2.87776
 30
0.0
 40
0
 41
0
  0
VERTEX
  8
0
 10
3.7206
 20
2.88488
 30
0.0
 40
0
 41
0
  0
VERTEX
  8
0
 10
3.71918
 20
2.90685
 30
0.0
 40
0
 41
0
  0
VERTEX
  8
0
 10
3.71653
 20
2.96556
 30
0.0
 40
0
 41
0
  0
VERTEX
  8
0
 10
3.71414
 20
3.05176
 30
0.0
 40
0
 41
0
  0
VERTEX
  8
0
 10
3.71213
 20
3.16325
 30
0.0
 40
0
 41
0
  0
VERTEX
  8
0
 10
3.7105
 20
3.2979
 30
0.0
 40
0
 41
0
  0
VERTEX
  8
0
 10
3.70931
 20
3.45361
 30
0.0
 40
0
 41
0
  0
VERTEX
  8
0
 10
3.70856
 20
3.62815
 30
0.0
 40
0
 41
0
  0
VERTEX
  8
0
 10
3.70833
 20
3.77165
 30
0.0
 40
0
 41
0
  0
VERTEX
  8
0
 10
3.70833
 20
3.81944
 30
0.0
 40
0
 41
0
  0
VERTEX
  8
0
 10
3.70833
 20
3.88721
 30
0.0
 40
0
 41
0
  0
VERTEX
  8
0
 10
3.70822
 20
4.0905
 30
0.0
 40
0
 41
0
  0
VERTEX
  8
0
 10
3.70774
 20
4.30078
 30
0.0
 40
0
 41
0
  0
VERTEX
  8
0
 10
3.7066
 20
4.45861
 30
0.0
 40
0
 41
0
  0
VERTEX
  8
0
 10
3.70464
 20
4.57226
 30
0.0
 40
0
 41
0
  0
VERTEX
  8
0
 10
3.70161
 20
4.6499
 30
0.0
 40
0
 41
0
  0
VERTEX
  8
0
 10
3.69715
 20
4.69993
 30
0.0
 40
0
 41
0
  0
VERTEX
  8
0
 10
3.69114
 20
4.73058
 30
0.0
 40
0
 41
0
  0
VERTEX
  8
0
 10
3.68571
 20
4.74544
 30
0.0
 40
0
 41
0
  0
VERTEX
  8
0
 10
3.68332
 20
4.75
 30
0.0
 40
0
 41
0
  0
VERTEX
  8
0
 10
3.65972
 20
4.79861
 30
0.0
 40
0
 41
0
  0
VERTEX
  8
0
 10
3.40001
 20
4.80279
 30
0.0
 40
0
 41
0
  0
VERTEX
  8
0
 10
3.13889
 20
4.80556
 30
0.0
 40
0
 41
0
  0
VERTEX
  8
0
 10
3.13889
 20
4.57639
 30
0.0
 40
0
 41
0
  0
SEQEND
 8
0
  0
POLYLINE
  8
0
 62
     0
 66
     1
 10
0
 20
0
 30
0.0
 70
     1
 40
0
 41
0
  0
VERTEX
  8
0
 10
1.10417
 20
4.21804
 30
0.0
 40
0
 41
0
  0
VERTEX
  8
0
 10
1.08892
 20
4.21056
 30
0.0
 40
0
 41
0
  0
VERTEX
  8
0
 10
1.04584
 20
4.18267
 30
0.0
 40
0
 41
0
  0
VERTEX
  8
0
 10
0.99094
 20
4.13579
 30
0.0
 40
0
 41
0
  0
VERTEX
  8
0
 10
0.941243
 20
4.07904
 30
0.0
 40
0
 41
0
  0
VERTEX
  8
0
 10
0.90804
 20
4.03087
 30
0.0
 40
0
 41
0
  0
VERTEX
  8
0
 10
0.8986
 20
4.01389
 30
0.0
 40
0
 41
0
  0
VERTEX
  8
0
 10
0.883464
 20
3.98719
 30
0.0
 40
0
 41
0
  0
VERTEX
  8
0
 10
0.849826
 20
3.90028
 30
0.0
 40
0
 41
0
  0
VERTEX
  8
0
 10
0.811632
 20
3.75575
 30
0.0
 40
0
 41
0
  0
VERTEX
  8
0
 10
0.786675
 20
3.59381
 30
0.0
 40
0
 41
0
  0
VERTEX
  8
0
 10
0.777778
 20
3.46929
 30
0.0
 40
0
 41
0
  0
VERTEX
  8
0
 10
0.777778
 20
3.42779
 30
0.0
 40
0
 41
0
  0
VERTEX
  8
0
 10
0.777778
 20
3.33333
 30
0.0
 40
0
 41
0
  0
VERTEX
  8
0
 10
0.555556
 20
3.33333
 30
0.0
 40
0
 41
0
  0
VERTEX
  8
0
 10
0.555556
 20
3.15278
 30
0.0
 40
0
 41
0
  0
VERTEX
  8
0
 10
0.777778
 20
3.15278
 30
0.0
 40
0
 41
0
  0
VERTEX
  8
0
 10
0.777778
 20
1.16667
 30
0.0
 40
0
 41
0
  0
VERTEX
  8
0
 10
0.944444
 20
1.16667
 30
0.0
 40
0
 41
0
  0
VERTEX
  8
0
 10
0.944444
 20
3.15278
 30
0.0
 40
0
 41
0
  0
VERTEX
  8
0
 10
1.29167
 20
3.15278
 30
0.0
 40
0
 41
0
  0
VERTEX
  8
0
 10
1.29167
 20
3.33333
 30
0.0
 40
0
 41
0
  0
VERTEX
  8
0
 10
0.944444
 20
3.33333
 30
0.0
 40
0
 41
0
  0
VERTEX
  8
0
 10
0.944444
 20
3.43608
 30
0.0
 40
0
 41
0
  0
VERTEX
  8
0
 10
0.944444
 20
3.48096
 30
0.0
 40
0
 41
0
  0
VERTEX
  8
0
 10
0.960124
 20
3.61556
 30
0.0
 40
0
 41
0
  0
VERTEX
  8
0
 10
1.00326
 20
3.78076
 30
0.0
 40
0
 41
0
  0
VERTEX
  8
0
 10
1.06803
 20
3.91601
 30
0.0
 40
0
 41
0
  0
VERTEX
  8
0
 10
1.12462
 20
3.98856
 30
0.0
 40
0
 41
0
  0
VERTEX
  8
0
 10
1.1486
 20
4.00553
 30
0.0
 40
0
 41
0
  0
VERTEX
  8
0
 10
1.16314
 20
4.01568
 30
0.0
 40
0
 41
0
  0
VERTEX
  8
0
 10
1.21197
 20
4.03874
 30
0.0
 40
0
 41
0
  0
VERTEX
  8
0
 10
1.27772
 20
4.05344
 30
0.0
 40
0
 41
0
  0
VERTEX
  8
0
 10
1.34364
 20
4.05057
 30
0.0
 40
0
 41
0
  0
VERTEX
  8
0
 10
1.40761
 20
4.03108
 30
0.0
 40
0
 41
0
  0
VERTEX
  8
0
 10
1.46739
 20
3.99593
 30
0.0
 40
0
 41
0
  0
VERTEX
  8
0
 10
1.52083
 20
3.94601
 30
0.0
 40
0
 41
0
  0
VERTEX
  8
0
 10
1.56575
 20
3.88226
 30
0.0
 40
0
 41
0
  0
VERTEX
  8
0
 10
1.59326
 20
3.82536
 30
0.0
 40
0
 41
0
  0
VERTEX
  8
0
 10
1.59999
 20
3.80556
 30
0.0
 40
0
 41
0
  0
VERTEX
  8
0
 10
1.60221
 20
3.79904
 30
0.0
 40
0
 41
0
  0
VERTEX
  8
0
 10
1.60439
 20
3.77789
 30
0.0
 40
0
 41
0
  0
VERTEX
  8
0
 10
1.6084
 20
3.71983
 30
0.0
 40
0
 41
0
  0
VERTEX
  8
0
 10
1.61193
 20
3.62858
 30
0.0
 40
0
 41
0
  0
VERTEX
  8
0
 10
1.61507
 20
3.50108
 30
0.0
 40
0
 41
0
  0
VERTEX
  8
0
 10
1.61794
 20
3.33436
 30
0.0
 40
0
 41
0
  0
VERTEX
  8
0
 10
1.6205
 20
3.12549
 30
0.0
 40
0
 41
0
  0
VERTEX
  8
0
 10
1.62283
 20
2.87153
 30
0.0
 40
0
 41
0
  0
VERTEX
  8
0
 10
1.62451
 20
2.64497
 30
0.0
 40
0
 41
0
  0
VERTEX
  8
0
 10
1.625
 20
2.56944
 30
0.0
 40
0
 41
0
  0
VERTEX
  8
0
 10
1.63194
 20
1.38194
 30
0.0
 40
0
 41
0
  0
VERTEX
  8
0
 10
1.66525
 20
1.30832
 30
0.0
 40
0
 41
0
  0
VERTEX
  8
0
 10
1.67204
 20
1.29346
 30
0.0
 40
0
 41
0
  0
VERTEX
  8
0
 10
1.69786
 20
1.2513
 30
0.0
 40
0
 41
0
  0
VERTEX
  8
0
 10
1.73872
 20
1.20193
 30
0.0
 40
0
 41
0
  0
VERTEX
  8
0
 10
1.78342
 20
1.16477
 30
0.0
 40
0
 41
0
  0
VERTEX
  8
0
 10
1.81614
 20
1.1473
 30
0.0
 40
0
 41
0
  0
VERTEX
  8
0
 10
1.82781
 20
1.14442
 30
0.0
 40
0
 41
0
  0
VERTEX
  8
0
 10
1.83957
 20
1.14133
 30
0.0
 40
0
 41
0
  0
VERTEX
  8
0
 10
1.88325
 20
1.13997
 30
0.0
 40
0
 41
0
  0
VERTEX
  8
0
 10
1.96419
 20
1.14377
 30
0.0
 40
0
 41
0
  0
VERTEX
  8
0
 10
2.04883
 20
1.15386
 30
0.0
 40
0
 41
0
  0
VERTEX
  8
0
 10
2.09912
 20
1.16303
 30
0.0
 40
0
 41
0
  0
VERTEX
  8
0
 10
2.11529
 20
1.16808
 30
0.0
 40
0
 41
0
  0
VERTEX
  8
0
 10
2.12001
 20
1.16971
 30
0.0
 40
0
 41
0
  0
VERTEX
  8
0
 10
2.13411
 20
1.17508
 30
0.0
 40
0
 41
0
  0
VERTEX
  8
0
 10
2.14822
 20
1.18235
 30
0.0
 40
0
 41
0
  0
VERTEX
  8
0
 10
2.15793
 20
1.19119
 30
0.0
 40
0
 41
0
  0
VERTEX
  8
0
 10
2.16351
 20
1.20296
 30
0.0
 40
0
 41
0
  0
VERTEX
  8
0
 10
2.16531
 20
1.21902
 30
0.0
 40
0
 41
0
  0
VERTEX
  8
0
 10
2.16368
 20
1.24056
 30
0.0
 40
0
 41
0
  0
VERTEX
  8
0
 10
2.1589
 20
1.26899
 30
0.0
 40
0
 41
0
  0
VERTEX
  8
0
 10
2.15332
 20
1.29644
 30
0.0
 40
0
 41
0
  0
VERTEX
  8
0
 10
2.15136
 20
1.30556
 30
0.0
 40
0
 41
0
  0
VERTEX
  8
0
 10
2.14908
 20
1.31559
 30
0.0
 40
0
 41
0
  0
VERTEX
  8
0
 10
2.14176
 20
1.34543
 30
0.0
 40
0
 41
0
  0
VERTEX
  8
0
 10
2.13282
 20
1.36599
 30
0.0
 40
0
 41
0
  0
VERTEX
  8
0
 10
2.1199
 20
1.37196
 30
0.0
 40
0
 41
0
  0
VERTEX
  8
0
 10
2.10379
 20
1.36947
 30
0.0
 40
0
 41
0
  0
VERTEX
  8
0
 10
2.09864
 20
1.36806
 30
0.0
 40
0
 41
0
  0
VERTEX
  8
0
 10
2.09375
 20
1.36702
 30
0.0
 40
0
 41
0
  0
VERTEX
  8
0
 10
2.05067
 20
1.35975
 30
0.0
 40
0
 41
0
  0
VERTEX
  8
0
 10
1.99653
 20
1.35248
 30
0.0
 40
0
 41
0
  0
VERTEX
  8
0
 10
1.98611
 20
1.3514
 30
0.0
 40
0
 41
0
  0
VERTEX
  8
0
 10
1.97607
 20
1.35053
 30
0.0
 40
0
 41
0
  0
VERTEX
  8
0
 10
1.94581
 20
1.34923
 30
0.0
 40
0
 41
0
  0
VERTEX
  8
0
 10
1.91715
 20
1.35156
 30
0.0
 40
0
 41
0
  0
VERTEX
  8
0
 10
1.89447
 20
1.35943
 30
0.0
 40
0
 41
0
  0
VERTEX
  8
0
 10
1.8775
 20
1.36968
 30
0.0
 40
0
 41
0
  0
VERTEX
  8
0
 10
1.87224
 20
1.37359
 30
0.0
 40
0
 41
0
  0
VERTEX
  8
0
 10
1.86865
 20
1.37647
 30
0.0
 40
0
 41
0
  0
VERTEX
  8
0
 10
1.85801
 20
1.38504
 30
0.0
 40
0
 41
0
  0
VERTEX
  8
0
 10
1.8456
 20
1.39665
 30
0.0
 40
0
 41
0
  0
VERTEX
  8
0
 10
1.83485
 20
1.41026
 30
0.0
 40
0
 41
0
  0
VERTEX
  8
0
 10
1.82563
 20
1.42779
 30
0.0
 40
0
 41
0
  0
VERTEX
  8
0
 10
1.81782
 20
1.45111
 30
0.0
 40
0
 41
0
  0
VERTEX
  8
0
 10
1.81131
 20
1.48215
 30
0.0
 40
0
 41
0
  0
VERTEX
  8
0
 10
1.80599
 20
1.52268
 30
0.0
 40
0
 41
0
  0
VERTEX
  8
0
 10
1.80171
 20
1.57465
 30
0.0
 40
0
 41
0
  0
VERTEX
  8
0
 10
1.79839
 20
1.63997
 30
0.0
 40
0
 41
0
  0
VERTEX
  8
0
 10
1.7959
 20
1.72049
 30
0.0
 40
0
 41
0
  0
VERTEX
  8
0
 10
1.79411
 20
1.81803
 30
0.0
 40
0
 41
0
  0
VERTEX
  8
0
 10
1.79292
 20
1.93457
 30
0.0
 40
0
 41
0
  0
VERTEX
  8
0
 10
1.79215
 20
2.07194
 30
0.0
 40
0
 41
0
  0
VERTEX
  8
0
 10
1.79178
 20
2.23199
 30
0.0
 40
0
 41
0
  0
VERTEX
  8
0
 10
1.79167
 20
2.41667
 30
0.0
 40
0
 41
0
  0
VERTEX
  8
0
 10
1.79167
 20
2.57503
 30
0.0
 40
0
 41
0
  0
VERTEX
  8
0
 10
1.79167
 20
2.62776
 30
0.0
 40
0
 41
0
  0
VERTEX
  8
0
 10
1.79167
 20
2.68028
 30
0.0
 40
0
 41
0
  0
VERTEX
  8
0
 10
1.79161
 20
2.83772
 30
0.0
 40
0
 41
0
  0
VERTEX
  8
0
 10
1.79144
 20
3.02246
 30
0.0
 40
0
 41
0
  0
VERTEX
  8
0
 10
1.79101
 20
3.18381
 30
0.0
 40
0
 41
0
  0
VERTEX
  8
0
 10
1.79021
 20
3.32368
 30
0.0
 40
0
 41
0
  0
VERTEX
  8
0
 10
1.78901
 20
3.4439
 30
0.0
 40
0
 41
0
  0
VERTEX
  8
0
 10
1.78717
 20
3.54639
 30
0.0
 40
0
 41
0
  0
VERTEX
  8
0
 10
1.78467
 20
3.63292
 30
0.0
 40
0
 41
0
  0
VERTEX
  8
0
 10
1.78142
 20
3.7054
 30
0.0
 40
0
 41
0
  0
VERTEX
  8
0
 10
1.77718
 20
3.76568
 30
0.0
 40
0
 41
0
  0
VERTEX
  8
0
 10
1.77203
 20
3.81565
 30
0.0
 40
0
 41
0
  0
VERTEX
  8
0
 10
1.76574
 20
3.85715
 30
0.0
 40
0
 41
0
  0
VERTEX
  8
0
 10
1.75825
 20
3.89204
 30
0.0
 40
0
 41
0
  0
VERTEX
  8
0
 10
1.7494
 20
3.92219
 30
0.0
 40
0
 41
0
  0
VERTEX
  8
0
 10
1.7391
 20
3.94943
 30
0.0
 40
0
 41
0
  0
VERTEX
  8
0
 10
1.72732
 20
3.97569
 30
0.0
 40
0
 41
0
  0
VERTEX
  8
0
 10
1.71729
 20
3.99604
 30
0.0
 40
0
 41
0
  0
VERTEX
  8
0
 10
1.71386
 20
4.00276
 30
0.0
 40
0
 41
0
  0
VERTEX
  8
0
 10
1.70578
 20
4.01899
 30
0.0
 40
0
 41
0
  0
VERTEX
  8
0
 10
1.67572
 20
4.06461
 30
0.0
 40
0
 41
0
  0
VERTEX
  8
0
 10
1.62651
 20
4.12256
 30
0.0
 40
0
 41
0
  0
VERTEX
  8
0
 10
1.57032
 20
4.17269
 30
0.0
 40
0
 41
0
  0
VERTEX
  8
0
 10
1.52664
 20
4.20296
 30
0.0
 40
0
 41
0
  0
VERTEX
  8
0
 10
1.51113
 20
4.2111
 30
0.0
 40
0
 41
0
  0
VERTEX
  8
0
 10
1.5025
 20
4.21544
 30
0.0
 40
0
 41
0
  0
VERTEX
  8
0
 10
1.47553
 20
4.22613
 30
0.0
 40
0
 41
0
  0
VERTEX
  8
0
 10
1.43522
 20
4.23628
 30
0.0
 40
0
 41
0
  0
VERTEX
  8
0
 10
1.38314
 20
4.24257
 30
0.0
 40
0
 41
0
  0
VERTEX
  8
0
 10
1.33013
 20
4.24539
 30
0.0
 40
0
 41
0
  0
VERTEX
  8
0
 10
1.3125
 20
4.24582
 30
0.0
 40
0
 41
0
  0
VERTEX
  8
0
 10
1.2934
 20
4.24669
 30
0.0
 40
0
 41
0
  0
VERTEX
  8
0
 10
1.236
 20
4.24799
 30
0.0
 40
0
 41
0
  0
VERTEX
  8
0
 10
1.1849
 20
4.24501
 30
0.0
 40
0
 41
0
  0
VERTEX
  8
0
 10
1.14551
 20
4.23551
 30
0.0
 40
0
 41
0
  0
VERTEX
  8
0
 10
1.11431
 20
4.22282
 30
0.0
 40
0
 41
0
  0
VERTEX
  8
0
 10
1.10417
 20
4.21804
 30
0.0
 40
0
 41
0
  0
SEQEND
 8
0
  0
POLYLINE
  8
0
 62
     0
 66
     1
 10
0
 20
0
 30
0.0
 70
     1
 40
0
 41
0
  0
VERTEX
  8
0
 10
1.81108
 20
3.3125
 30
0.0
 40
0
 41
0
  0
VERTEX
  8
0
 10
1.81494
 20
3.30236
 30
0.0
 40
0
 41
0
  0
VERTEX
  8
0
 10
1.82531
 20
3.27126
 30
0.0
 40
0
 41
0
  0
VERTEX
  8
0
 10
1.85161
 20
3.19086
 30
0.0
 40
0
 41
0
  0
VERTEX
  8
0
 10
1.88835
 20
3.0771
 30
0.0
 40
0
 41
0
  0
VERTEX
  8
0
 10
1.93354
 20
2.9356
 30
0.0
 40
0
 41
0
  0
VERTEX
  8
0
 10
1.98546
 20
2.77219
 30
0.0
 40
0
 41
0
  0
VERTEX
  8
0
 10
2.04237
 20
2.59261
 30
0.0
 40
0
 41
0
  0
VERTEX
  8
0
 10
2.10238
 20
2.4025
 30
0.0
 40
0
 41
0
  0
VERTEX
  8
0
 10
2.16368
 20
2.20763
 30
0.0
 40
0
 41
0
  0
VERTEX
  8
0
 10
2.22456
 20
2.01378
 30
0.0
 40
0
 41
0
  0
VERTEX
  8
0
 10
2.28315
 20
1.82661
 30
0.0
 40
0
 41
0
  0
VERTEX
  8
0
 10
2.33763
 20
1.65192
 30
0.0
 40
0
 41
0
  0
VERTEX
  8
0
 10
2.38629
 20
1.49533
 30
0.0
 40
0
 41
0
  0
VERTEX
  8
0
 10
2.42725
 20
1.36263
 30
0.0
 40
0
 41
0
  0
VERTEX
  8
0
 10
2.45871
 20
1.2596
 30
0.0
 40
0
 41
0
  0
VERTEX
  8
0
 10
2.47894
 20
1.19189
 30
0.0
 40
0
 41
0
  0
VERTEX
  8
0
 10
2.48611
 20
1.17193
 30
0.0
 40
0
 41
0
  0
VERTEX
  8
0
 10
2.48611
 20
1.16526
 30
0.0
 40
0
 41
0
  0
VERTEX
  8
0
 10
2.48611
 20
1.15782
 30
0.0
 40
0
 41
0
  0
VERTEX
  8
0
 10
2.48036
 20
1.13547
 30
0.0
 40
0
 41
0
  0
VERTEX
  8
0
 10
2.4649
 20
1.07644
 30
0.0
 40
0
 41
0
  0
VERTEX
  8
0
 10
2.44217
 20
0.996311
 30
0.0
 40
0
 41
0
  0
VERTEX
  8
0
 10
2.41456
 20
0.903321
 30
0.0
 40
0
 41
0
  0
VERTEX
  8
0
 10
2.38465
 20
0.805556
 30
0.0
 40
0
 41
0
  0
VERTEX
  8
0
 10
2.35482
 20
0.711208
 30
0.0
 40
0
 41
0
  0
VERTEX
  8
0
 10
2.32764
 20
0.628364
 30
0.0
 40
0
 41
0
  0
VERTEX
  8
0
 10
2.31136
 20
0.580946
 30
0.0
 40
0
 41
0
  0
VERTEX
  8
0
 10
2.30556
 20
0.565267
 30
0.0
 40
0
 41
0
  0
VERTEX
  8
0
 10
2.29986
 20
0.550347
 30
0.0
 40
0
 41
0
  0
VERTEX
  8
0
 10
2.27815
 20
0.507269
 30
0.0
 40
0
 41
0
  0
VERTEX
  8
0
 10
2.24582
 20
0.468804
 30
0.0
 40
0
 41
0
  0
VERTEX
  8
0
 10
2.20514
 20
0.44694
 30
0.0
 40
0
 41
0
  0
VERTEX
  8
0
 10
2.1659
 20
0.439399
 30
0.0
 40
0
 41
0
  0
VERTEX
  8
0
 10
2.15278
 20
0.438911
 30
0.0
 40
0
 41
0
  0
VERTEX
  8
0
 10
2.09722
 20
0.4375
 30
0.0
 40
0
 41
0
  0
VERTEX
  8
0
 10
2.09722
 20
0.236111
 30
0.0
 40
0
 41
0
  0
VERTEX
  8
0
 10
2.17779
 20
0.236111
 30
0.0
 40
0
 41
0
  0
VERTEX
  8
0
 10
2.21012
 20
0.236111
 30
0.0
 40
0
 41
0
  0
VERTEX
  8
0
 10
2.30729
 20
0.265463
 30
0.0
 40
0
 41
0
  0
VERTEX
  8
0
 10
2.39165
 20
0.334418
 30
0.0
 40
0
 41
0
  0
VERTEX
  8
0
 10
2.40554
 20
0.354167
 30
0.0
 40
0
 41
0
  0
VERTEX
  8
0
 10
2.41049
 20
0.361219
 30
0.0
 40
0
 41
0
  0
VERTEX
  8
0
 10
2.42063
 20
0.385688
 30
0.0
 40
0
 41
0
  0
VERTEX
  8
0
 10
2.4451
 20
0.452149
 30
0.0
 40
0
 41
0
  0
VERTEX
  8
0
 10
2.48047
 20
0.558485
 30
0.0
 40
0
 41
0
  0
VERTEX
  8
0
 10
2.52826
 20
0.709581
 30
0.0
 40
0
 41
0
  0
VERTEX
  8
0
 10
2.59006
 20
0.910374
 30
0.0
 40
0
 41
0
  0
VERTEX
  8
0
 10
2.66743
 20
1.16569
 30
0.0
 40
0
 41
0
  0
VERTEX
  8
0
 10
2.76187
 20
1.48053
 30
0.0
 40
0
 41
0
  0
VERTEX
  8
0
 10
2.84679
 20
1.76492
 30
0.0
 40
0
 41
0
  0
VERTEX
  8
0
 10
2.875
 20
1.85969
 30
0.0
 40
0
 41
0
  0
VERTEX
  8
0
 10
2.89654
 20
1.93257
 30
0.0
 40
0
 41
0
  0
VERTEX
  8
0
 10
2.96126
 20
2.15121
 30
0.0
 40
0
 41
0
  0
VERTEX
  8
0
 10
3.04189
 20
2.42361
 30
0.0
 40
0
 41
0
  0
VERTEX
  8
0
 10
3.11496
 20
2.67101
 30
0.0
 40
0
 41
0
  0
VERTEX
  8
0
 10
3.17882
 20
2.88738
 30
0.0
 40
0
 41
0
  0
VERTEX
  8
0
 10
3.23156
 20
3.06668
 30
0.0
 40
0
 41
0
  0
VERTEX
  8
0
 10
3.27149
 20
3.2029
 30
0.0
 40
0
 41
0
  0
VERTEX
  8
0
 10
3.29671
 20
3.2901
 30
0.0
 40
0
 41
0
  0
VERTEX
  8
0
 10
3.30556
 20
3.31418
 30
0.0
 40
0
 41
0
  0
VERTEX
  8
0
 10
3.30556
 20
3.32221
 30
0.0
 40
0
 41
0
  0
VERTEX
  8
0
 10
3.30556
 20
3.3234
 30
0.0
 40
0
 41
0
  0
VERTEX
  8
0
 10
3.29921
 20
3.32688
 30
0.0
 40
0
 41
0
  0
VERTEX
  8
0
 10
3.28207
 20
3.33008
 30
0.0
 40
0
 41
0
  0
VERTEX
  8
0
 10
3.25689
 20
3.33143
 30
0.0
 40
0
 41
0
  0
VERTEX
  8
0
 10
3.234
 20
3.33106
 30
0.0
 40
0
 41
0
  0
VERTEX
  8
0
 10
3.2264
 20
3.33057
 30
0.0
 40
0
 41
0
  0
VERTEX
  8
0
 10
3.14725
 20
3.32639
 30
0.0
 40
0
 41
0
  0
VERTEX
  8
0
 10
2.86806
 20
2.37082
 30
0.0
 40
0
 41
0
  0
VERTEX
  8
0
 10
2.85394
 20
2.32292
 30
0.0
 40
0
 41
0
  0
VERTEX
  8
0
 10
2.81158
 20
2.17925
 30
0.0
 40
0
 41
0
  0
VERTEX
  8
0
 10
2.75868
 20
2.00076
 30
0.0
 40
0
 41
0
  0
VERTEX
  8
0
 10
2.7105
 20
1.83931
 30
0.0
 40
0
 41
0
  0
VERTEX
  8
0
 10
2.66818
 20
1.69879
 30
0.0
 40
0
 41
0
  0
VERTEX
  8
0
 10
2.63303
 20
1.58306
 30
0.0
 40
0
 41
0
  0
VERTEX
  8
0
 10
2.60613
 20
1.49604
 30
0.0
 40
0
 41
0
  0
VERTEX
  8
0
 10
2.58865
 20
1.44162
 30
0.0
 40
0
 41
0
  0
VERTEX
  8
0
 10
2.58192
 20
1.42361
 30
0.0
 40
0
 41
0
  0
VERTEX
  8
0
 10
2.58192
 20
1.42361
 30
0.0
 40
0
 41
0
  0
VERTEX
  8
0
 10
2.58089
 20
1.42432
 30
0.0
 40
0
 41
0
  0
VERTEX
  8
0
 10
2.57433
 20
1.44412
 30
0.0
 40
0
 41
0
  0
VERTEX
  8
0
 10
2.55544
 20
1.50092
 30
0.0
 40
0
 41
0
  0
VERTEX
  8
0
 10
2.52664
 20
1.59
 30
0.0
 40
0
 41
0
  0
VERTEX
  8
0
 10
2.48904
 20
1.70747
 30
0.0
 40
0
 41
0
  0
VERTEX
  8
0
 10
2.44396
 20
1.84939
 30
0.0
 40
0
 41
0
  0
VERTEX
  8
0
 10
2.39264
 20
2.01172
 30
0.0
 40
0
 41
0
  0
VERTEX
  8
0
 10
2.33637
 20
2.1906
 30
0.0
 40
0
 41
0
  0
VERTEX
  8
0
 10
2.29135
 20
2.33415
 30
0.0
 40
0
 41
0
  0
VERTEX
  8
0
 10
2.27636
 20
2.38194
 30
0.0
 40
0
 41
0
  0
VERTEX
  8
0
 10
1.97917
 20
3.33333
 30
0.0
 40
0
 41
0
  0
VERTEX
  8
0
 10
1.89031
 20
3.33333
 30
0.0
 40
0
 41
0
  0
VERTEX
  8
0
 10
1.87929
 20
3.33333
 30
0.0
 40
0
 41
0
  0
VERTEX
  8
0
 10
1.8464
 20
3.33247
 30
0.0
 40
0
 41
0
  0
VERTEX
  8
0
 10
1.82096
 20
3.32921
 30
0.0
 40
0
 41
0
  0
VERTEX
  8
0
 10
1.81033
 20
3.32281
 30
0.0
 40
0
 41
0
  0
VERTEX
  8
0
 10
1.81011
 20
3.31478
 30
0.0
 40
0
 41
0
  0
VERTEX
  8
0
 10
1.81108
 20
3.3125
 30
0.0
 40
0
 41
0
  0
SEQEND
 8
0
  0
ENDSEC
  0
EOF
